custom-analysis
version=1
nRows=4
nColumns=98
inDegrees=no

This file contains tibia displacement and acting force.

Units are S.I. units (seconds, meters, Newtons, ...)
Angles are in degrees.

endheader
time	APT	SIT	knee_angle	aACL_R_force	pACL_R_force	aPCL_R_force	pPCL_R_force	aMCL_R_force	mMCL_R_force	pMCL_R_force	aLCL_R_force	mLCL_R_force	pLCL_R_force	aPCL_L_force	pPCL_L_force	aMCL_L_force	aLCL_L_force	aACL_R_length	pACL_R_length	aPCL_R_length	pPCL_R_length	aMCL_R_length	mMCL_R_length	pMCL_R_length	aLCL_R_length	mLCL_R_length	pLCL_R_length	aPCL_L_length	pPCL_L_length	aMCL_L_length	aLCL_L_length	aACL_R_strain	pACL_R_strain	aPCL_R_strain	pPCL_R_strain	aMCL_R_strain	mMCL_R_strain	pMCL_R_strain	aLCL_R_strain	mLCL_R_strain	pLCL_R_strain	aPCL_L_strain	pPCL_L_strain	aMCL_L_strain	aLCL_L_strain	femur_lat_meniscii_r.femur_lat_r.force.X	femur_lat_meniscii_r.femur_lat_r.force.Y	femur_lat_meniscii_r.femur_lat_r.force.Z	femur_lat_meniscii_r.femur_lat_r.torque.X	femur_lat_meniscii_r.femur_lat_r.torque.Y	femur_lat_meniscii_r.femur_lat_r.torque.Z	femur_lat_meniscii_r.meniscus_lat_r.force.X	femur_lat_meniscii_r.meniscus_lat_r.force.Y	femur_lat_meniscii_r.meniscus_lat_r.force.Z	femur_lat_meniscii_r.meniscus_lat_r.torque.X	femur_lat_meniscii_r.meniscus_lat_r.torque.Y	femur_lat_meniscii_r.meniscus_lat_r.torque.Z	femur_med_meniscii_r.femur_med_r.force.X	femur_med_meniscii_r.femur_med_r.force.Y	femur_med_meniscii_r.femur_med_r.force.Z	femur_med_meniscii_r.femur_med_r.torque.X	femur_med_meniscii_r.femur_med_r.torque.Y	femur_med_meniscii_r.femur_med_r.torque.Z	femur_med_meniscii_r.meniscus_med_r.force.X	femur_med_meniscii_r.meniscus_med_r.force.Y	femur_med_meniscii_r.meniscus_med_r.force.Z	femur_med_meniscii_r.meniscus_med_r.torque.X	femur_med_meniscii_r.meniscus_med_r.torque.Y	femur_med_meniscii_r.meniscus_med_r.torque.Z	femur_med_tibia_r.tibia_upper_r.force.X	femur_med_tibia_r.tibia_upper_r.force.Y	femur_med_tibia_r.tibia_upper_r.force.Z	femur_med_tibia_r.tibia_upper_r.torque.X	femur_med_tibia_r.tibia_upper_r.torque.Y	femur_med_tibia_r.tibia_upper_r.torque.Z	femur_med_tibia_r.femur_med_r.force.X	femur_med_tibia_r.femur_med_r.force.Y	femur_med_tibia_r.femur_med_r.force.Z	femur_med_tibia_r.femur_med_r.torque.X	femur_med_tibia_r.femur_med_r.torque.Y	femur_med_tibia_r.femur_med_r.torque.Z	femur_lat_tibia_r.tibia_upper_r.force.X	femur_lat_tibia_r.tibia_upper_r.force.Y	femur_lat_tibia_r.tibia_upper_r.force.Z	femur_lat_tibia_r.tibia_upper_r.torque.X	femur_lat_tibia_r.tibia_upper_r.torque.Y	femur_lat_tibia_r.tibia_upper_r.torque.Z	femur_lat_tibia_r.femur_lat_r.force.X	femur_lat_tibia_r.femur_lat_r.force.Y	femur_lat_tibia_r.femur_lat_r.force.Z	femur_lat_tibia_r.femur_lat_r.torque.X	femur_lat_tibia_r.femur_lat_r.torque.Y	femur_lat_tibia_r.femur_lat_r.torque.Z	femur_lat_meniscii_force_r	femur_med_meniscii_force_r	femur_lat_tibia_force_r	femur_med_tibia_force_r
      0.00005306	      0.00000246	      0.00000674	      1.66626773	    -31.90072391	    -11.68548612	      0.00000000	      0.00000000	      0.00000000	   -109.52140021	    -65.45982729	   -156.91857989	      0.00000000	   -156.66623099	      0.00000000	      0.00000000	      0.00000001	      0.00000000	      0.03250196	      0.02691425	      0.02938903	      0.02968137	      0.05648549	      0.06131427	      0.06357742	      0.05697027	      0.05537532	      0.05351904	      0.01525851	      0.01651186	      0.06550154	      0.04489616	      0.04826442	      0.07404821	     -0.05487235	     -0.00690688	     -0.05899853	      0.02543373	      0.08257423	      0.01774059	     -0.01674892	      0.02247373	      0.00000079	     -0.32847694	      0.00000060	     -0.00000086	      0.21828925	      0.58012602	      0.09609472	     -0.05568837	      0.00596914	      0.09128860	     -0.21828925	     -0.58012602	     -0.09609472	      0.02172447	     -0.00704443	     -0.00764445	      1.05716910	      6.63572671	      1.05486915	     -0.30063565	     -0.03700532	      0.54500399	     -1.05716910	     -6.63572671	     -1.05486915	     -0.07079807	      0.03221713	     -0.14264005	      0.00000000	      0.00000000	      0.00000000	      0.00000000	      0.00000000	      0.00000000	      0.00000000	      0.00000000	      0.00000000	      0.00000000	      0.00000000	      0.00000000	      0.00000000	      0.00000000	      0.00000000	      0.00000000	      0.00000000	      0.00000000	      0.00000000	      0.00000000	      0.00000000	      0.00000000	      0.00000000	      0.00000000	      0.62724046	      6.80170746	      0.00000000	      0.00000000
      0.00008383	      0.00000449	      0.00001214	      1.66670781	    -35.48730587	    -15.68713810	      0.00000000	      0.00000000	      0.00000000	   -116.08407859	    -72.03756600	   -165.64629770	      0.00000000	   -165.48466731	      0.00000000	      0.00000000	      0.00000001	      0.00000000	      0.03249792	      0.02691006	      0.02938404	      0.02967625	      0.05648065	      0.06130929	      0.06357249	      0.05696476	      0.05536981	      0.05351350	      0.01525851	      0.01651186	      0.06550154	      0.04489616	      0.04813401	      0.07388097	     -0.05503263	     -0.00707800	     -0.05907932	      0.02535044	      0.08249022	      0.01764221	     -0.01684680	      0.02236794	      0.00000079	     -0.32847694	      0.00000060	     -0.00000086	      0.25443562	      0.70277348	      0.12994109	     -0.07320697	      0.00698395	      0.10656958	     -0.25443562	     -0.70277348	     -0.12994109	      0.02685199	     -0.00822437	     -0.00909390	      1.19454754	      7.30273319	      1.27439077	     -0.37898980	     -0.04241052	      0.61029732	     -1.19454754	     -7.30273319	     -1.27439077	     -0.07348524	      0.03705837	     -0.15550096	      0.00000000	      0.00000000	      0.00000000	      0.00000000	      0.00000000	      0.00000000	      0.00000000	      0.00000000	      0.00000000	      0.00000000	      0.00000000	      0.00000000	      0.00000000	      0.00000000	      0.00000000	      0.00000000	      0.00000000	      0.00000000	      0.00000000	      0.00000000	      0.00000000	      0.00000000	      0.00000000	      0.00000000	      0.75862555	      7.50872344	      0.00000000	      0.00000000
      0.00013459	      0.00000797	      0.00002140	      1.66747267	    -37.49516859	    -18.10777743	      0.00000000	      0.00000000	      0.00000000	   -118.49099095	    -74.53299222	   -168.56957732	      0.00000000	   -168.48036603	      0.00000000	      0.00000000	      0.00000001	      0.00000000	      0.03249090	      0.02690278	      0.02937557	      0.02966754	      0.05647236	      0.06130077	      0.06356404	      0.05695536	      0.05536040	      0.05350405	      0.01525851	      0.01651186	      0.06550154	      0.04489616	      0.04790773	      0.07359028	     -0.05530530	     -0.00736941	     -0.05921739	      0.02520796	      0.08234644	      0.01747434	     -0.01701385	      0.02218739	      0.00000079	     -0.32847694	      0.00000060	     -0.00000086	      0.33432091	      0.95616558	      0.19413956	     -0.10694888	      0.00916297	      0.14040048	     -0.33432091	     -0.95616558	     -0.19413956	      0.03719949	     -0.01077586	     -0.01234381	      1.38129830	      8.29454703	      1.59751281	     -0.49411095	     -0.04977441	      0.69887966	     -1.38129830	     -8.29454703	     -1.59751281	     -0.07760172	      0.04367272	     -0.17286411	      0.00000000	      0.00000000	      0.00000000	      0.00000000	      0.00000000	      0.00000000	      0.00000000	      0.00000000	      0.00000000	      0.00000000	      0.00000000	      0.00000000	      0.00000000	      0.00000000	      0.00000000	      0.00000000	      0.00000000	      0.00000000	      0.00000000	      0.00000000	      0.00000000	      0.00000000	      0.00000000	      0.00000000	      1.03136475	      8.55917885	      0.00000000	      0.00000000
      0.00027864	      0.00001806	      0.00004750	      1.66973095	    -36.78948628	    -18.12785587	      0.00000000	      0.00000000	      0.00000000	   -113.16429050	    -69.49899994	   -161.19709585	      0.00000000	   -161.16193638	      0.00000000	      0.00000000	      0.00000001	      0.00000000	      0.03247086	      0.02688188	      0.02935189	      0.02964319	      0.05644919	      0.06127690	      0.06354038	      0.05692906	      0.05533407	      0.05347758	      0.01525851	      0.01651186	      0.06550154	      0.04489616	      0.04726132	      0.07275647	     -0.05606669	     -0.00818422	     -0.05960339	      0.02480875	      0.08194353	      0.01700440	     -0.01748150	      0.02168176	      0.00000079	     -0.32847694	      0.00000060	     -0.00000086	      0.64320184	      1.88753724	      0.43697461	     -0.23393289	      0.01749390	      0.27139576	     -0.64320184	     -1.88753724	     -0.43697461	      0.07554760	     -0.02054969	     -0.02506196	      1.92427751	     10.98281999	      2.47845405	     -0.80834021	     -0.06986535	      0.95276966	     -1.92427751	    -10.98281999	     -2.47845405	     -0.08854981	      0.06154142	     -0.21953617	      0.00000000	      0.00000000	      0.00000000	      0.00000000	      0.00000000	      0.00000000	      0.00000000	      0.00000000	      0.00000000	      0.00000000	      0.00000000	      0.00000000	      0.00000000	      0.00000000	      0.00000000	      0.00000000	      0.00000000	      0.00000000	      0.00000000	      0.00000000	      0.00000000	      0.00000000	      0.00000000	      0.00000000	      2.04143387	     11.42225518	      0.00000000	      0.00000000
